<svg width="18" height="18" viewBox="0 0 18 18" fill="none" xmlns="http://www.w3.org/2000/svg">
<path d="M9.91656 0.867651C10.4482 0.10664 11.6396 0.41768 11.7314 1.34144L12.2268 6.32653C12.2557 6.61695 12.41 6.88028 12.6493 7.04742L16.7561 9.91633C17.5171 10.448 17.206 11.6394 16.2823 11.7312L11.2972 12.2266C11.0068 12.2555 10.7434 12.4098 10.5763 12.649L7.70738 16.7558C7.17576 17.5168 5.9843 17.2058 5.8925 16.282L5.39711 11.297C5.36825 11.0065 5.21395 10.7432 4.97469 10.5761L0.867882 7.70715C0.106871 7.17553 0.417912 5.98407 1.34167 5.89227L6.32676 5.39688C6.61719 5.36802 6.88051 5.21372 7.04765 4.97446L9.91656 0.867651Z" fill="#D9D9D9"/>
<path d="M9.91656 0.867651C10.4482 0.10664 11.6396 0.41768 11.7314 1.34144L12.2268 6.32653C12.2557 6.61695 12.41 6.88028 12.6493 7.04742L16.7561 9.91633C17.5171 10.448 17.206 11.6394 16.2823 11.7312L11.2972 12.2266C11.0068 12.2555 10.7434 12.4098 10.5763 12.649L7.70738 16.7558C7.17576 17.5168 5.9843 17.2058 5.8925 16.282L5.39711 11.297C5.36825 11.0065 5.21395 10.7432 4.97469 10.5761L0.867882 7.70715C0.106871 7.17553 0.417912 5.98407 1.34167 5.89227L6.32676 5.39688C6.61719 5.36802 6.88051 5.21372 7.04765 4.97446L9.91656 0.867651Z" fill="url(#paint0_linear_3140_6497)"/>
<defs>
<linearGradient id="paint0_linear_3140_6497" x1="6.5" y1="4" x2="21.244" y2="10.9818" gradientUnits="userSpaceOnUse">
<stop stop-color="#B47FFF"/>
<stop offset="1" stop-color="#1835C7"/>
</linearGradient>
</defs>
</svg>
